<svg width="17" height="16" viewBox="0 0 17 16" fill="none" xmlns="http://www.w3.org/2000/svg">
<g clip-path="url(#clip0_9368_3706)">
<path d="M13.0335 3.80665C12.7735 3.54665 12.3535 3.54665 12.0935 3.80665L8.83348 7.05998L5.57348 3.79998C5.31348 3.53998 4.89348 3.53998 4.63348 3.79998C4.37348 4.05998 4.37348 4.47998 4.63348 4.73998L7.89348 7.99998L4.63348 11.26C4.37348 11.52 4.37348 11.94 4.63348 12.2C4.89348 12.46 5.31348 12.46 5.57348 12.2L8.83348 8.93998L12.0935 12.2C12.3535 12.46 12.7735 12.46 13.0335 12.2C13.2935 11.94 13.2935 11.52 13.0335 11.26L9.77348 7.99998L13.0335 4.73998C13.2868 4.48665 13.2868 4.05998 13.0335 3.80665Z" fill="#0E0E0E"/>
</g>
<defs>
<clipPath id="clip0_9368_3706">
<rect width="16" height="16" fill="white" transform="translate(0.833008)"/>
</clipPath>
</defs>
</svg>
