<svg width="24" height="24" viewBox="0 0 24 24" fill="none" xmlns="http://www.w3.org/2000/svg">
<path d="M4 18.8925H5H4ZM4.58579 20.3827L5.31115 19.6944L4.58579 20.3827ZM6 21V20H6L6 21ZM18 21V22V21ZM19.4142 20.3827L18.6889 19.6944L19.4142 20.3827ZM20 18.8925H19H20ZM5 15.2044L5 14.2044H3V15.2044H5ZM21 15.2044V14.2044H19V15.2044H21ZM13.0011 3V2H11.0011V3H13.0011ZM12.0011 14.9425L11.2946 15.6502L12.0011 16.3554L12.7076 15.6502L12.0011 14.9425ZM17.279 11.087L17.9868 10.3806L16.5738 8.96508L15.8661 9.67155L17.279 11.087ZM8.13615 9.67155L7.42841 8.96508L6.01547 10.3806L6.72322 11.087L8.13615 9.67155ZM4 18.8925H3C3 19.7003 3.30402 20.4848 3.86042 21.0711L4.58579 20.3827L5.31115 19.6944C5.1174 19.4902 5 19.2026 5 18.8925H4ZM4.58579 20.3827L3.86042 21.0711C4.41851 21.6592 5.18696 22 6 22V21L6 20C5.75218 20 5.50321 19.8967 5.31115 19.6944L4.58579 20.3827ZM6 21V22H18V21V20H6V21ZM18 21V22C18.813 22 19.5815 21.6592 20.1396 21.0711L19.4142 20.3827L18.6889 19.6944C18.4968 19.8967 18.2478 20 18 20V21ZM19.4142 20.3827L20.1396 21.0711C20.696 20.4848 21 19.7003 21 18.8925H20H19C19 19.2026 18.8826 19.4902 18.6889 19.6944L19.4142 20.3827ZM4 15.2044H3L3 18.8925H4H5L5 15.2044H4ZM20 18.8925H21V15.2044H20H19V18.8925H20ZM12.0011 3H11.0011V14.9425H12.0011H13.0011V3H12.0011ZM12.0011 14.9425L12.7076 15.6502L17.279 11.087L16.5725 10.3793L15.8661 9.67155L11.2946 14.2347L12.0011 14.9425ZM7.42969 10.3793L6.72322 11.087L11.2946 15.6502L12.0011 14.9425L12.7076 14.2347L8.13615 9.67155L7.42969 10.3793Z" fill="#005928"/>
</svg>
