<svg width="16" height="16" viewBox="0 0 16 16" fill="none" xmlns="http://www.w3.org/2000/svg">
<path d="M12.7161 11.7213C12.8482 11.8534 12.9224 12.0325 12.9224 12.2193C12.9224 12.4061 12.8482 12.5853 12.7161 12.7174C12.584 12.8495 12.4048 12.9237 12.218 12.9237C12.0312 12.9237 11.8521 12.8495 11.72 12.7174L7.99985 8.99609L4.27856 12.7162C4.14647 12.8483 3.96732 12.9225 3.78052 12.9225C3.59371 12.9225 3.41456 12.8483 3.28247 12.7162C3.15038 12.5841 3.07617 12.405 3.07617 12.2182C3.07617 12.0314 3.15038 11.8522 3.28247 11.7201L7.00376 8L3.28364 4.27871C3.15155 4.14662 3.07734 3.96746 3.07734 3.78066C3.07734 3.59386 3.15155 3.4147 3.28364 3.28261C3.41573 3.15052 3.59488 3.07632 3.78169 3.07632C3.96849 3.07632 4.14765 3.15052 4.27974 3.28261L7.99985 7.0039L11.7211 3.28203C11.8532 3.14994 12.0324 3.07573 12.2192 3.07573C12.406 3.07573 12.5851 3.14994 12.7172 3.28203C12.8493 3.41412 12.9235 3.59327 12.9235 3.78007C12.9235 3.96688 12.8493 4.14603 12.7172 4.27812L8.99595 8L12.7161 11.7213Z" fill="#636363"/>
</svg>
