<svg width="161" height="48" viewBox="0 0 161 48" fill="none" xmlns="http://www.w3.org/2000/svg">
<path d="M26.2391 6.02359H55.1556C57.9508 6.0236 60.2167 8.31097 60.2167 11.1326V12.0799C60.2167 12.455 60.0562 12.8023 59.7033 12.92C57.1239 13.78 46.5743 14.6887 46.5186 17.2105C46.4767 19.1119 61.0588 19.7471 63.239 20.1968C64.7791 20.5146 67.4329 21.3969 66.0758 23.4577C64.9126 25.2236 52.8518 27.7218 50.2127 28.2218C49.1659 28.4201 48.0948 28.6115 47.0077 28.796C42.7533 31.6089 28.9267 34.9458 20.9815 31.4218C22.8967 35.2257 26.4695 38.0361 30.7402 38.883C31.5985 39.0742 32.4443 39.1582 33.2764 39.1473C33.3342 39.148 33.3923 39.1484 33.4503 39.1484C38.2824 39.1483 42.5417 36.6731 45.0522 32.9103C51.0168 30.3869 54.3236 29.8657 60.2235 29.0022L60.2195 38.1841C60.218 41.3966 57.6377 43.9999 54.4553 44H12.0543C9.02222 44 6.56426 41.5188 6.56425 38.458C6.56427 38.1511 6.66992 37.8542 6.94591 37.7255C9.27723 36.6387 20.2448 35.5701 20.2692 33.5376C20.2991 31.0349 4.78402 30.8104 2.37479 29.9256C-3.85169 27.6382 6.84079 24.4007 8.93298 23.8461C11.599 23.1393 16.7805 21.8968 19.3747 21.7291C19.5681 21.7166 19.7228 21.7375 19.8453 21.7851C19.6012 22.8293 19.4721 23.9184 19.4721 25.0379C19.4721 25.2649 19.4774 25.4906 19.4879 25.715C27.5667 30.4536 43.8881 26.5292 47.3483 23.5222C46.5992 16.442 40.6629 10.9275 33.4503 10.9275C28.0425 10.9275 23.352 14.0275 21.0274 18.5632C15.0345 20.4229 11.9265 21.0129 6.56425 21.7459V11.7773C6.56425 8.60569 9.12196 6.0405 12.2637 6.06109V3H26.2391V6.02359Z" fill="url(#paint0_linear_6182_51767)"/>
<path d="M78.7905 21V7.00001H84.2305C85.3772 7.00001 86.3239 7.19334 87.0705 7.58001C87.8305 7.96668 88.3972 8.50001 88.7705 9.18001C89.1439 9.84668 89.3305 10.6 89.3305 11.44C89.3305 12.2267 89.1505 12.9533 88.7905 13.62C88.4305 14.2867 87.8772 14.8267 87.1305 15.24C86.3839 15.6533 85.4172 15.86 84.2305 15.86H81.7905V21H78.7905ZM81.7905 13.46H84.0305C84.8172 13.46 85.3839 13.28 85.7305 12.92C86.0905 12.5467 86.2705 12.0533 86.2705 11.44C86.2705 10.8133 86.0905 10.3267 85.7305 9.98001C85.3839 9.62001 84.8172 9.44001 84.0305 9.44001H81.7905V13.46Z" fill="#032703"/>
<path d="M91.271 21V7.00001H94.271V21H91.271Z" fill="#032703"/>
<path d="M103.295 21.24C101.895 21.24 100.688 20.94 99.6746 20.34C98.6613 19.7267 97.8813 18.88 97.3346 17.8C96.7879 16.7067 96.5146 15.4533 96.5146 14.04C96.5146 12.6 96.7879 11.34 97.3346 10.26C97.8813 9.16668 98.6613 8.31334 99.6746 7.70001C100.688 7.07334 101.895 6.76001 103.295 6.76001C105.028 6.76001 106.441 7.19334 107.535 8.06001C108.641 8.92668 109.328 10.1467 109.595 11.72H106.315C106.155 11.0133 105.815 10.4667 105.295 10.08C104.775 9.68001 104.101 9.48001 103.275 9.48001C102.488 9.48001 101.815 9.66668 101.255 10.04C100.708 10.4133 100.288 10.94 99.9946 11.62C99.7146 12.2867 99.5746 13.0933 99.5746 14.04C99.5746 14.96 99.7146 15.76 99.9946 16.44C100.288 17.1067 100.708 17.6267 101.255 18C101.815 18.36 102.488 18.54 103.275 18.54C104.101 18.54 104.768 18.3667 105.275 18.02C105.795 17.66 106.141 17.1467 106.315 16.48H109.595C109.328 17.96 108.641 19.1267 107.535 19.98C106.441 20.82 105.028 21.24 103.295 21.24Z" fill="#032703"/>
<path d="M114.999 21V9.42001H110.939V7.00001H122.059V9.42001H117.999V21H114.999Z" fill="#032703"/>
<path d="M129.467 21.24C128.414 21.24 127.454 21.0333 126.587 20.62C125.734 20.1933 125.054 19.56 124.547 18.72C124.054 17.88 123.807 16.82 123.807 15.54V7.00001H126.807V15.56C126.807 16.1867 126.907 16.72 127.107 17.16C127.321 17.6 127.627 17.9333 128.027 18.16C128.441 18.3733 128.934 18.48 129.507 18.48C130.094 18.48 130.587 18.3733 130.987 18.16C131.401 17.9333 131.714 17.6 131.927 17.16C132.141 16.72 132.247 16.1867 132.247 15.56V7.00001H135.247V15.54C135.247 16.82 134.981 17.88 134.447 18.72C133.927 19.56 133.227 20.1933 132.347 20.62C131.481 21.0333 130.521 21.24 129.467 21.24Z" fill="#032703"/>
<path d="M137.794 21V7.00001H143.234C144.368 7.00001 145.308 7.20001 146.054 7.60001C146.814 7.98668 147.374 8.50668 147.734 9.16001C148.108 9.81334 148.294 10.54 148.294 11.34C148.294 12.0867 148.114 12.7867 147.754 13.44C147.408 14.0933 146.861 14.62 146.114 15.02C145.368 15.42 144.401 15.62 143.214 15.62H140.794V21H137.794ZM145.014 21L142.194 14.88H145.414L148.414 21H145.014ZM140.794 13.46H143.054C143.801 13.46 144.348 13.28 144.694 12.92C145.054 12.56 145.234 12.0733 145.234 11.46C145.234 10.86 145.054 10.3867 144.694 10.04C144.348 9.68001 143.801 9.50001 143.054 9.50001H140.794V13.46Z" fill="#032703"/>
<path d="M150.607 21V7.00001H159.987V9.42001H153.607V12.72H159.387V15.04H153.607V18.58H159.987V21H150.607Z" fill="#032703"/>
<path d="M78.4502 42V26H84.385C85.636 26 86.6687 26.221 87.4833 26.6629C88.3125 27.1048 88.9307 27.7143 89.338 28.4914C89.7452 29.2533 89.9489 30.1143 89.9489 31.0743C89.9489 31.9733 89.7525 32.8038 89.3598 33.5657C88.967 34.3276 88.3634 34.9448 87.5488 35.4171C86.7342 35.8895 85.6796 36.1257 84.385 36.1257H81.7231V42H78.4502ZM81.7231 33.3829H84.1668C85.025 33.3829 85.6432 33.1771 86.0214 32.7657C86.4142 32.339 86.6106 31.7752 86.6106 31.0743C86.6106 30.3581 86.4142 29.8019 86.0214 29.4057C85.6432 28.9943 85.025 28.7886 84.1668 28.7886H81.7231V33.3829Z" fill="#032703"/>
<path d="M92.0659 42V26H95.3387V39.3486H101.928V42H92.0659Z" fill="#032703"/>
<path d="M103.441 42L109.005 26H112.758L118.322 42H114.853L110.86 29.8629L106.867 42H103.441ZM105.863 38.5029L106.736 35.8514H114.744L115.595 38.5029H105.863Z" fill="#032703"/>
<path d="M120.213 42V26H123.486L130.185 36.5143V26H133.458V42H130.185L123.486 31.5314V42H120.213Z" fill="#032703"/>
<path d="M136.386 42V26H146.619V28.7657H139.659V32.5371H145.965V35.1886H139.659V39.2343H146.619V42H136.386Z" fill="#032703"/>
<path d="M152.748 42V28.7657H148.319V26H160.45V28.7657H156.021V42H152.748Z" fill="#032703"/>
<defs>
<linearGradient id="paint0_linear_6182_51767" x1="31.7579" y1="-3.40625" x2="58.3674" y2="43.7864" gradientUnits="userSpaceOnUse">
<stop stop-color="#005928"/>
<stop offset="1" stop-color="#4B7C53"/>
</linearGradient>
</defs>
</svg>
