<svg width="49" height="48" viewBox="0 0 49 48" fill="none" xmlns="http://www.w3.org/2000/svg">
<path d="M20.0667 3.62241H35.8393C37.364 3.62242 38.5999 4.84979 38.5999 6.36384V6.87212C38.5999 7.07339 38.5123 7.25978 38.3199 7.32293C36.913 7.7844 31.1586 8.27199 31.1282 9.62513C31.1054 10.6454 39.0592 10.9862 40.2484 11.2276C41.0885 11.3981 42.536 11.8715 41.7958 12.9773C41.1613 13.9249 34.5827 15.2654 33.1432 15.5336C32.5722 15.64 31.988 15.7428 31.395 15.8417C29.0744 17.3511 21.5326 19.1417 17.1989 17.2507C18.2436 19.2918 20.1924 20.7998 22.5218 21.2543C22.99 21.3569 23.4513 21.402 23.9052 21.3961C23.9367 21.3965 23.9684 21.3967 24.0001 21.3967C26.6358 21.3967 28.959 20.0685 30.3284 18.0494C33.5818 16.6954 35.3855 16.4157 38.6036 15.9524L38.6015 20.8793C38.6006 22.603 37.1932 24 35.4573 24H12.3295C10.6757 24 9.33494 22.6686 9.33494 21.0262C9.33495 20.8616 9.39258 20.7023 9.54311 20.6332C10.8147 20.05 16.7971 19.4766 16.8103 18.386C16.8267 17.0431 8.3639 16.9227 7.04978 16.4479C3.65352 15.2205 9.48578 13.4833 10.627 13.1857C12.0812 12.8065 14.9074 12.1397 16.3225 12.0498C16.4279 12.0431 16.5123 12.0543 16.5791 12.0798C16.446 12.6401 16.3756 13.2245 16.3756 13.8252C16.3756 13.947 16.3785 14.0681 16.3842 14.1885C20.7908 16.7312 29.6934 14.6254 31.5808 13.0119C31.1722 9.2128 27.9342 6.2538 24.0001 6.25377C21.0503 6.25377 18.4919 7.91722 17.2239 10.351C13.9551 11.3489 12.2598 11.6655 9.33494 12.0588V6.70976C9.33494 5.00793 10.7301 3.63149 12.4437 3.64254V2H20.0667V3.62241Z" fill="url(#paint0_linear_6182_51766)"/>
<path d="M2 34.6245V27.1285H4.91273C5.52669 27.1285 6.03357 27.232 6.43335 27.4391C6.84028 27.6461 7.14369 27.9316 7.34358 28.2957C7.54348 28.6527 7.64342 29.056 7.64342 29.5058C7.64342 29.927 7.54705 30.3161 7.35429 30.673C7.16154 31.03 6.86526 31.3191 6.46548 31.5404C6.06569 31.7617 5.54811 31.8724 4.91273 31.8724H3.60629V34.6245H2ZM3.60629 30.5874H4.80565C5.22685 30.5874 5.53026 30.491 5.71588 30.2982C5.90863 30.0983 6.00501 29.8342 6.00501 29.5058C6.00501 29.1703 5.90863 28.9097 5.71588 28.7241C5.53026 28.5313 5.22685 28.4349 4.80565 28.4349H3.60629V30.5874Z" fill="#032703"/>
<path d="M8.6824 34.6245V27.1285H10.2887V34.6245H8.6824Z" fill="#032703"/>
<path d="M15.1202 34.753C14.3706 34.753 13.7245 34.5924 13.1819 34.2711C12.6394 33.9427 12.2217 33.4894 11.929 32.9111C11.6363 32.3257 11.49 31.6547 11.49 30.8979C11.49 30.1269 11.6363 29.4523 11.929 28.874C12.2217 28.2886 12.6394 27.8317 13.1819 27.5033C13.7245 27.1678 14.3706 27 15.1202 27C16.0483 27 16.805 27.232 17.3904 27.6961C17.9829 28.1601 18.3506 28.8133 18.4934 29.6557H16.7372C16.6515 29.2774 16.4695 28.9847 16.191 28.7776C15.9126 28.5635 15.5521 28.4564 15.1095 28.4564C14.6883 28.4564 14.3278 28.5563 14.0279 28.7562C13.7352 28.9561 13.5103 29.2381 13.3533 29.6022C13.2034 29.9591 13.1284 30.3911 13.1284 30.8979C13.1284 31.3905 13.2034 31.8189 13.3533 32.183C13.5103 32.5399 13.7352 32.8183 14.0279 33.0182C14.3278 33.211 14.6883 33.3074 15.1095 33.3074C15.5521 33.3074 15.9091 33.2145 16.1803 33.0289C16.4588 32.8362 16.6444 32.5613 16.7372 32.2044H18.4934C18.3506 32.9968 17.9829 33.6215 17.3904 34.0784C16.805 34.5281 16.0483 34.753 15.1202 34.753Z" fill="#032703"/>
<path d="M21.3872 34.6245V28.4242H19.2134V27.1285H25.1673V28.4242H22.9935V34.6245H21.3872Z" fill="#032703"/>
<path d="M29.1338 34.753C28.5698 34.753 28.0558 34.6424 27.5917 34.421C27.1348 34.1926 26.7708 33.8535 26.4995 33.4037C26.2353 32.954 26.1033 32.3864 26.1033 31.7011V27.1285H27.7095V31.7118C27.7095 32.0473 27.7631 32.3329 27.8702 32.5685C27.9844 32.8041 28.1486 32.9825 28.3628 33.1039C28.5841 33.2181 28.8482 33.2752 29.1552 33.2752C29.4693 33.2752 29.7335 33.2181 29.9476 33.1039C30.1689 32.9825 30.3367 32.8041 30.4509 32.5685C30.5652 32.3329 30.6223 32.0473 30.6223 31.7118V27.1285H32.2286V31.7011C32.2286 32.3864 32.0858 32.954 31.8002 33.4037C31.5218 33.8535 31.147 34.1926 30.6758 34.421C30.2118 34.6424 29.6978 34.753 29.1338 34.753Z" fill="#032703"/>
<path d="M33.5924 34.6245V27.1285H36.5051C37.112 27.1285 37.6153 27.2356 38.015 27.4498C38.422 27.6568 38.7218 27.9352 38.9146 28.285C39.1145 28.6348 39.2144 29.0239 39.2144 29.4523C39.2144 29.8521 39.118 30.2269 38.9253 30.5767C38.7397 30.9265 38.447 31.2085 38.0472 31.4226C37.6474 31.6368 37.1298 31.7439 36.4944 31.7439H35.1987V34.6245H33.5924ZM37.4582 34.6245L35.9483 31.3477H37.6724L39.2787 34.6245H37.4582ZM35.1987 30.5874H36.4088C36.8085 30.5874 37.1012 30.491 37.2869 30.2982C37.4796 30.1055 37.576 29.8449 37.576 29.5165C37.576 29.1953 37.4796 28.9418 37.2869 28.7562C37.1012 28.5635 36.8085 28.4671 36.4088 28.4671H35.1987V30.5874Z" fill="#032703"/>
<path d="M40.4526 34.6245V27.1285H45.4749V28.4242H42.0589V30.1912H45.1537V31.4334H42.0589V33.3288H45.4749V34.6245H40.4526Z" fill="#032703"/>
<path d="M2 46V37.3496H5.20864C5.88498 37.3496 6.44334 37.4691 6.88374 37.708C7.33201 37.9469 7.66624 38.2764 7.88645 38.6966C8.10665 39.1085 8.21675 39.574 8.21675 40.093C8.21675 40.5791 8.11058 41.0281 7.89824 41.44C7.68591 41.8519 7.35954 42.1856 6.91913 42.441C6.47873 42.6964 5.90857 42.8241 5.20864 42.8241H3.76947V46H2ZM3.76947 41.3411H5.09068C5.55467 41.3411 5.88891 41.2299 6.09338 41.0075C6.30572 40.7768 6.41189 40.472 6.41189 40.093C6.41189 39.7058 6.30572 39.4051 6.09338 39.1909C5.88891 38.9685 5.55467 38.8572 5.09068 38.8572H3.76947V41.3411Z" fill="#032703"/>
<path d="M9.36128 46V37.3496H11.1308V44.5665H14.6933V46H9.36128Z" fill="#032703"/>
<path d="M15.5115 46L18.5196 37.3496H20.5486L23.5567 46H21.6811L19.5223 39.4381L17.3635 46H15.5115ZM16.8209 44.1093L17.2928 42.6758H21.6221L22.0821 44.1093H16.8209Z" fill="#032703"/>
<path d="M24.5792 46V37.3496H26.3487L29.9702 43.0341V37.3496H31.7397V46H29.9702L26.3487 40.3402V46H24.5792Z" fill="#032703"/>
<path d="M33.3229 46V37.3496H38.8554V38.8449H35.0924V40.8839H38.5015V42.3174H35.0924V44.5047H38.8554V46H33.3229Z" fill="#032703"/>
<path d="M42.169 46V38.8449H39.7743V37.3496H46.3331V38.8449H43.9384V46H42.169Z" fill="#032703"/>
<defs>
<linearGradient id="paint0_linear_6182_51766" x1="23.0769" y1="-1.4375" x2="37.2332" y2="24.084" gradientUnits="userSpaceOnUse">
<stop stop-color="#005928"/>
<stop offset="1" stop-color="#4B7C53"/>
</linearGradient>
</defs>
</svg>
